<?xml version="1.0" encoding="UTF-8"?>
<svg version="1.1" xmlns="http://www.w3.org/2000/svg" width="763" height="249">
<path d="M0 0 C251.79 0 503.58 0 763 0 C763 82.17 763 164.34 763 249 C511.21 249 259.42 249 0 249 C0 166.83 0 84.66 0 0 Z " fill="#FEFEFE" transform="translate(0,0)"/>
<path d="M0 0 C0.87183426 -0.00525696 1.74366852 -0.01051392 2.641922 -0.01593018 C5.5284712 -0.02915101 8.41447041 -0.02038397 11.30102539 -0.01025391 C13.3049785 -0.01227423 15.30893089 -0.01518531 17.31288147 -0.01895142 C21.51529939 -0.02337775 25.71752615 -0.01693441 29.91992188 -0.00292969 C35.30825765 0.01415129 40.69614481 0.00432977 46.08446407 -0.01364708 C50.22371299 -0.02448594 54.36285551 -0.0210379 58.50210762 -0.0132637 C60.488847 -0.01126141 62.47559602 -0.01372198 64.46232414 -0.02070236 C67.239466 -0.02831722 70.01588105 -0.0167116 72.79296875 0 C74.02667709 -0.00910904 74.02667709 -0.00910904 75.28530884 -0.0184021 C78.40378847 0.01638087 81.05518058 0.22906727 83.97158813 1.37203979 C86.37816209 4.6293037 86.00791526 8.14404671 85.96289062 12.03466797 C85.9709951 13.35945915 85.9709951 13.35945915 85.97926331 14.71101379 C85.99178665 17.63499299 85.97523569 20.55799446 85.95727539 23.48193359 C85.95743029 25.51070202 85.95891784 27.53947076 85.96168518 29.5682373 C85.96307079 33.82199165 85.95048393 38.07540948 85.92773438 42.32910156 C85.89934939 47.78705569 85.90208497 53.24445046 85.91482449 58.70244598 C85.92177291 62.89228103 85.91400194 67.08198633 85.90156746 71.27180481 C85.89704482 73.28448489 85.89672322 75.29717886 85.90063286 77.30986023 C85.90353687 80.12076461 85.88707699 82.9308928 85.86523438 85.74169922 C85.86973602 86.57711746 85.87423767 87.41253571 85.87887573 88.27326965 C85.80568818 93.92954729 85.80568818 93.92954729 84.17415714 96.10157967 C81.16424518 98.3623035 77.43592348 97.80269004 73.81469727 97.77636719 C72.48990608 97.78425262 72.48990608 97.78425262 71.13835144 97.79229736 C68.21453241 97.80551749 65.29125636 97.79675215 62.36743164 97.78662109 C60.33866267 97.78864125 58.30989441 97.7915522 56.28112793 97.7953186 C52.02743624 97.79974469 47.77393343 97.7933017 43.52026367 97.77929688 C38.06232927 97.7622049 32.60483741 97.77204456 27.14691925 97.79001427 C22.95709893 97.80084439 18.76738388 97.7974093 14.57756042 97.78963089 C12.56487476 97.78762675 10.55217959 97.79009563 8.539505 97.79706955 C5.72863373 97.80467129 2.91848346 97.79309777 0.10766602 97.77636719 C-0.72775223 97.78243988 -1.56317047 97.78851257 -2.42390442 97.79476929 C-8.0806108 97.73225561 -8.0806108 97.73225561 -10.25221443 96.10157967 C-12.51271165 93.0912305 -11.95332661 89.3631728 -11.92700195 85.74169922 C-11.93225891 84.8585051 -11.93751587 83.97531097 -11.94293213 83.06535339 C-11.95615225 80.14153436 -11.94738691 77.21825831 -11.93725586 74.29443359 C-11.93927602 72.26566462 -11.94218696 70.23689636 -11.94595337 68.20812988 C-11.95037945 63.95443819 -11.94393647 59.70093538 -11.92993164 55.44726562 C-11.91283967 49.98933122 -11.92267932 44.53183936 -11.94064903 39.0739212 C-11.95147915 34.88410089 -11.94804406 30.69438583 -11.94026566 26.50456238 C-11.93826151 24.49187671 -11.9407304 22.47918154 -11.94770432 20.46650696 C-11.95530605 17.65563568 -11.94373253 14.84548542 -11.92700195 12.03466797 C-11.93307465 11.19924973 -11.93914734 10.36383148 -11.94540405 9.50309753 C-11.88287924 3.84538371 -11.88287924 3.84538371 -10.24942112 1.67478752 C-7.26315876 -0.57128443 -3.59368811 -0.02646872 0 0 Z " fill="#FAEFE0" transform="translate(115.538818359375,141.61181640625)"/>
<path d="M0 0 C0.88319412 -0.00525696 1.76638824 -0.01051392 2.67634583 -0.01593018 C5.60016486 -0.0291503 8.52344091 -0.02038496 11.44726562 -0.01025391 C13.47603459 -0.01227406 15.50480286 -0.01518501 17.53356934 -0.01895142 C21.78726102 -0.0233775 26.04076384 -0.01693452 30.29443359 -0.00292969 C35.752368 0.01416228 41.20985986 0.00432263 46.66777802 -0.01364708 C50.85759833 -0.0244772 55.04731339 -0.02104211 59.23713684 -0.0132637 C61.24982251 -0.01125956 63.26251768 -0.01372844 65.27519226 -0.02070236 C68.08606354 -0.0283041 70.8962138 -0.01673058 73.70703125 0 C74.54244949 -0.00607269 75.37786774 -0.01214539 76.23860168 -0.0184021 C81.89616411 0.04412104 81.89616411 0.04412104 84.0669117 1.67716026 C86.31510795 4.66698188 85.76814773 8.34508406 85.74169922 11.94287109 C85.74695618 12.81631165 85.75221313 13.6897522 85.75762939 14.58966064 C85.77084887 17.48101609 85.76208443 20.3718224 85.75195312 23.26318359 C85.7539733 25.26953233 85.75688426 27.27588035 85.76065063 29.28222656 C85.76507663 33.48884059 85.75863403 37.69526362 85.74462891 41.90185547 C85.72753693 47.29925743 85.73737663 52.69621188 85.7553463 58.09359741 C85.76617667 62.23709497 85.76274122 66.38048609 85.75496292 70.52398682 C85.75295885 72.5143438 85.75542743 74.50471038 85.76240158 76.49505615 C85.77000373 79.27479727 85.75842926 82.0538094 85.74169922 84.83349609 C85.74777191 85.6595636 85.7538446 86.4856311 85.76010132 87.33673096 C85.69759499 92.9306008 85.69759499 92.9306008 84.0669117 95.09920692 C81.05763642 97.36306506 77.32927575 96.80269745 73.70703125 96.77636719 C72.38224007 96.78425262 72.38224007 96.78425262 71.03068542 96.79229736 C68.10686639 96.80551749 65.18359034 96.79675215 62.25976562 96.78662109 C60.23099666 96.78864125 58.20222839 96.7915522 56.17346191 96.7953186 C51.91977023 96.79974469 47.66626741 96.7933017 43.41259766 96.77929688 C37.95466325 96.7622049 32.49717139 96.77204456 27.03925323 96.79001427 C22.84943292 96.80084439 18.65971786 96.7974093 14.46989441 96.78963089 C12.45720874 96.78762675 10.44451357 96.79009563 8.43183899 96.79706955 C5.62096771 96.80467129 2.81081745 96.79309777 0 96.77636719 C-0.83541824 96.78243988 -1.67083649 96.78851257 -2.53157043 96.79476929 C-8.18913286 96.73224615 -8.18913286 96.73224615 -10.35988045 95.09920692 C-12.6080767 92.1093853 -12.06111648 88.43128313 -12.03466797 84.83349609 C-12.03992493 83.96005554 -12.04518188 83.08661499 -12.05059814 82.18670654 C-12.06381762 79.29535109 -12.05505318 76.40454479 -12.04492188 73.51318359 C-12.04694205 71.50683486 -12.04985301 69.50048684 -12.05361938 67.49414062 C-12.05804538 63.2875266 -12.05160278 59.08110356 -12.03759766 54.87451172 C-12.02050568 49.47710976 -12.03034538 44.08015531 -12.04831505 38.68276978 C-12.05914542 34.53927222 -12.05570997 30.3958811 -12.04793167 26.25238037 C-12.0459276 24.26202339 -12.04839618 22.27165681 -12.05537033 20.28131104 C-12.06297248 17.50156991 -12.05139801 14.72255779 -12.03466797 11.94287109 C-12.04074066 11.11680359 -12.04681335 10.29073608 -12.05307007 9.43963623 C-11.99056374 3.84576639 -11.99056374 3.84576639 -10.35988045 1.67716026 C-7.35060517 -0.58669787 -3.6222445 -0.02633026 0 0 Z " fill="#FAEEDF" transform="translate(11.646484375,38.61181640625)"/>
<path d="M0 0 C1.21316895 0.00765381 2.42633789 0.01530762 3.67626953 0.02319336 C14.16053006 0.2796359 22.89612822 2.2398003 32.375 6.625 C33.550625 7.15480469 34.72625 7.68460938 35.9375 8.23046875 C56.19120481 18.2856689 69.84154699 35.59813787 77.09814453 56.73095703 C79.70821646 65.03149107 80.71899082 73.18699506 80.8125 81.875 C80.82796875 83.07261963 80.82796875 83.07261963 80.84375 84.29443359 C80.75515053 90.04970763 79.53457652 93.46542348 75.375 97.625 C72.55999988 97.83416387 69.84258358 97.91863982 67.02563477 97.91552734 C66.16209381 97.92224457 65.29855286 97.92896179 64.40884399 97.93588257 C61.5446401 97.95493313 58.68066961 97.95879023 55.81640625 97.9609375 C53.8310486 97.96736026 51.84569192 97.97408822 49.8603363 97.98110962 C45.69487309 97.99309987 41.52949293 97.99678862 37.36401367 97.99560547 C32.01920586 97.99540212 26.67492884 98.02271296 21.33024693 98.05714989 C17.2287907 98.07935668 13.1274635 98.08344493 9.02595329 98.08238602 C7.05511583 98.08475104 5.08427529 98.09362491 3.11349678 98.10905075 C0.35986989 98.12858634 -2.39259575 98.12292215 -5.14624023 98.11083984 C-6.37367195 98.12769836 -6.37367195 98.12769836 -7.62590027 98.14489746 C-10.80478695 98.10934508 -13.03354606 98.06617968 -15.62966919 96.12966919 C-17.08383435 92.47038061 -17.05056242 88.94218804 -17.02905273 85.06445312 C-17.03591599 84.20222641 -17.04277924 83.33999969 -17.04985046 82.4516449 C-17.0681443 79.6030122 -17.06427768 76.75492881 -17.05859375 73.90625 C-17.06315397 71.92614563 -17.06845906 69.94604285 -17.07447815 67.96594238 C-17.08341407 63.81658497 -17.08098022 59.66741997 -17.07104492 55.51806641 C-17.05954844 50.19804553 -17.07977479 44.87868772 -17.10896206 39.55875397 C-17.12729753 35.47011083 -17.127037 31.38162741 -17.12132454 27.29295349 C-17.12117103 25.33132496 -17.12723953 23.3696858 -17.13961601 21.40809631 C-17.15447597 18.66682162 -17.14388643 15.9267826 -17.12670898 13.18554688 C-17.13637695 12.37399643 -17.14604492 11.56244598 -17.15600586 10.7263031 C-17.10880165 7.13310286 -16.938567 5.04524158 -14.75907898 2.1242981 C-10.45718883 -0.89799666 -5.0731737 -0.04662209 0 0 Z " fill="#FAEFE0" transform="translate(120.625,37.375)"/>
<path d="M0 0 C0.86109375 0.44085938 1.7221875 0.88171875 2.609375 1.3359375 C22.51556709 12.3033618 35.11095438 31.73289182 41.30859375 53.1328125 C43.7676562 63.33028053 44.79181433 76.02154124 41 86 C37.15333018 88.56444655 33.99674814 88.28818601 29.53710938 88.2746582 C28.67342239 88.27976913 27.80973541 88.28488007 26.9198761 88.29014587 C24.06109719 88.30406153 21.20255878 88.30308381 18.34375 88.30078125 C16.35982167 88.30466673 14.37589418 88.30900109 12.39196777 88.31376648 C8.23247583 88.32123267 4.07306876 88.32093425 -0.08642578 88.31567383 C-5.42327356 88.30987479 -10.75977479 88.3268188 -16.09656525 88.3500185 C-20.19372599 88.36473097 -24.29080275 88.36563101 -28.38798523 88.36250877 C-30.35601997 88.36302311 -32.32405928 88.36828183 -34.29206848 88.37832069 C-37.0406465 88.39062141 -39.78854273 88.3839322 -42.53710938 88.37231445 C-43.35382614 88.37995819 -44.17054291 88.38760193 -45.01200867 88.39547729 C-50.5442086 88.34364443 -50.5442086 88.34364443 -52.70907116 86.7114439 C-54.96339847 83.72277821 -54.40561686 80.04434211 -54.37231445 76.4453125 C-54.37596512 75.57187195 -54.37961578 74.6984314 -54.38337708 73.79852295 C-54.39149267 70.90715174 -54.37786408 68.01633918 -54.36328125 65.125 C-54.36276276 63.11865235 -54.36328002 61.11230418 -54.36479187 59.10595703 C-54.3647021 54.899337 -54.35426313 50.69290844 -54.33618164 46.48632812 C-54.31349438 41.08899904 -54.3129499 35.69194983 -54.31969929 30.29458618 C-54.32303771 26.15109766 -54.31641155 22.00767317 -54.30657005 17.86419678 C-54.30271559 15.87384374 -54.30157086 13.88348358 -54.3031559 11.89312744 C-54.30352596 9.11350894 -54.2909228 6.33425182 -54.2746582 3.5546875 C-54.27713562 2.72862 -54.27961304 1.90255249 -54.28216553 1.05145264 C-54.24594444 -2.81902967 -54.19696262 -4.70455606 -52 -8 C-36.02691713 -13.79467136 -14.06218696 -7.47283757 0 0 Z " fill="#FAEFE0" transform="translate(54,151)"/>
</svg>
